[img]http://img510.imageshack.us/img510/7647/iewiye.jpg[/img]

[img]http://leetleech.org/images/48874973695367351744.png[/img]

Format                           : AVI
Format/Info                      : Audio Video Interleave
File size                        : 780 MiB
Duration                         : 1h 36mn
Overall bit rate                 : 1 129 Kbps
Writing application              : Nandub v1.0rc2
Writing library                  : VirtualDub build 32839/release

Video
ID                               : 0
Format                           : MPEG-4 Visual
Format profile                   : Advanced Simple@L5
Format settings, BVOP            : Yes
Format settings, QPel            : No
Format settings, GMC             : No warppoints
Format settings, Matrix          : Custom
Codec ID                         : XVID
Codec ID/Hint                    : XviD
Duration                         : 1h 36mn
Bit rate                         : 990 Kbps
Width                            : 608 pixels
Height                           : 336 pixels
Display aspect ratio             : 16:9
Frame rate                       : 23.976 fps
Color space                      : YUV
Chroma subsampling               : 4:2:0
Bit depth                        : 8 bits
Scan type                        : Progressive
Bits/(Pixel*Frame)               : 0.202
Stream size                      : 684 MiB (88%)
Writing library                  : XviD 1.2.1 (UTC 2008-12-04)

Audio
ID                               : 1
Format                           : MPEG Audio
Format version                   : Version 1
Format profile                   : Layer 3
Mode                             : Joint stereo
Mode extension                   : MS Stereo
Codec ID                         : 55
Codec ID/Hint                    : MP3
Duration                         : 1h 36mn
Bit rate mode                    : Variable
Bit rate                         : 128 Kbps
Channel(s)                       : 2 channels
Sampling rate                    : 48.0 KHz
Video delay                      : 384ms
Stream size                      : 87.1 MiB (11%)
Alignment                        : Split accross interleaves
Interleave, duration             : 24 ms (0.58 video frame)
Interleave, preload duration     : 1218 ms
Writing library                  : LAME3.90.
Encoding settings                : -m j -V 4 -q 2 -lowpass 17.6 --abr 128

[url]http://www.imdb.com/title/tt1403988/[/url]


Users: 6.1/10 (301 votes) 4 reviews | Critics: 21 reviews Metascore: 43/100 (based on 20 reviews from Metacritic.com)

Seven close friends reunite for the wedding of two of their friends. Problems arise because the bride and the maid of honor have had a long rivalry over the groom.
Director:
Galt Niederhoffer
Writers:
Galt Niederhoffer (novel), Galt Niederhoffer
Stars:
Katie Holmes, Anna Paquin and Josh Duhamel 


[img]http://img18.imageshack.us/img18/4686/vlcsnap2011013011h51m03.png[/img]
[img]http://img573.imageshack.us/img573/7696/vlcsnap2011013011h51m23.png[/img]
[img]http://img819.imageshack.us/img819/3900/vlcsnap2011013011h50m41.png[/img]



Greetz to Imagine ,Flawl3ss ,Santi ,Vision ,Kingdom,BDK,DiGiTALiNK,LEGION,Classified,THC,WBZ,Rx ,Feel Free and to all who share






[img]http://img411.imageshack.us/img411/6898/sig1n.jpg[/img]








One to score some brownie points with the missus with :-) 